# MagicaVoxel @ Ephtracy

# group
g Reindeer 00

# material
mtllib Reindeer 00.mtl
usemtl palette

# normals
vn -1 0 0
vn 1 0 0
vn 0 0 1
vn 0 0 -1
vn 0 -1 0
vn 0 1 0

# texcoords
vt 0.154297 0.5
vt 0.212891 0.5
vt 0.275391 0.5
vt 0.908203 0.5
vt 0.962891 0.5
vt 0.982422 0.5

# verts
v -7 12 0.5
v -7 12 -0.5
v -7 14 0.5
v -7 14 -0.5
v -6 12 1.5
v -6 12 0.5
v -6 12 -0.5
v -6 12 -1.5
v -6 14 0.5
v -6 14 -0.5
v -6 15 1.5
v -6 15 -1.5
v -5 7 1.5
v -5 7 -1.5
v -5 12 1.5
v -5 12 -1.5
v -4 0 2.5
v -4 0 1.5
v -4 0 -1.5
v -4 0 -2.5
v -4 1 2.5
v -4 1 1.5
v -4 1 -1.5
v -4 1 -2.5
v -4 3 2.5
v -4 3 1.5
v -4 3 -1.5
v -4 3 -2.5
v -4 4 2.5
v -4 4 1.5
v -4 4 -1.5
v -4 4 -2.5
v -4 6 1.5
v -4 6 -1.5
v -4 7 1.5
v -4 7 -1.5
v -4 14 2.5
v -4 14 1.5
v -4 14 -1.5
v -4 14 -2.5
v -4 15 1.5
v -4 15 0.5
v -4 15 -0.5
v -4 15 -1.5
v -4 16 2.5
v -4 16 1.5
v -4 16 -1.5
v -4 16 -2.5
v -4 18 1.5
v -4 18 0.5
v -4 18 -0.5
v -4 18 -1.5
v -3 4 2.5
v -3 4 1.5
v -3 4 -1.5
v -3 4 -2.5
v -3 6 1.5
v -3 6 -1.5
v -3 8 2.5
v -3 8 1.5
v -3 8 -1.5
v -3 8 -2.5
v -2 18 1.5
v -2 18 0.5
v -2 18 -0.5
v -2 18 -1.5
v -2 19 3.5
v -2 19 1.5
v -2 19 -1.5
v -2 19 -3.5
v -2 20 2.5
v -2 20 1.5
v -2 20 -1.5
v -2 20 -2.5
v -2 21 1.5
v -2 21 0.5
v -2 21 -0.5
v -2 21 -1.5
v -2 23 3.5
v -2 23 2.5
v -2 23 -2.5
v -2 23 -3.5
v 4 4 2.5
v 4 4 1.5
v 4 4 -1.5
v 4 4 -2.5
v 4 6 1.5
v 4 6 -1.5
v 4 8 2.5
v 4 8 1.5
v 4 8 -1.5
v 4 8 -2.5
v 5 3 2.5
v 5 3 1.5
v 5 3 -1.5
v 5 3 -2.5
v 5 4 2.5
v 5 4 1.5
v 5 4 -1.5
v 5 4 -2.5
v 6 0 2.5
v 6 0 1.5
v 6 0 -1.5
v 6 0 -2.5
v 6 1 2.5
v 6 1 1.5
v 6 1 -1.5
v 6 1 -2.5
v 6 3 2.5
v 6 3 1.5
v 6 3 -1.5
v 6 3 -2.5
v 6 10 0.5
v 6 10 -0.5
v 6 11 0.5
v 6 11 -0.5
v 7 11 0.5
v 7 11 -0.5
v 7 12 0.5
v 7 12 -0.5
v -3 0 2.5
v -3 0 1.5
v -3 0 -1.5
v -3 0 -2.5
v -3 1 2.5
v -3 1 1.5
v -3 1 -1.5
v -3 1 -2.5
v -3 3 2.5
v -3 3 1.5
v -3 3 -1.5
v -3 3 -2.5
v -3 14 2.5
v -3 14 1.5
v -3 14 -1.5
v -3 14 -2.5
v -3 15 1.5
v -3 15 0.5
v -3 15 -0.5
v -3 15 -1.5
v -3 16 2.5
v -3 16 1.5
v -3 16 -1.5
v -3 16 -2.5
v -3 17 1.5
v -3 17 0.5
v -3 17 -0.5
v -3 17 -1.5
v -2 3 2.5
v -2 3 1.5
v -2 3 -1.5
v -2 3 -2.5
v -2 4 2.5
v -2 4 1.5
v -2 4 -1.5
v -2 4 -2.5
v -2 12 1.5
v -2 12 -1.5
v -2 15 1.5
v -2 15 -1.5
v -1 4 2.5
v -1 4 1.5
v -1 4 -1.5
v -1 4 -2.5
v -1 6 1.5
v -1 6 -1.5
v -1 8 2.5
v -1 8 1.5
v -1 8 -1.5
v -1 8 -2.5
v -1 11 1.5
v -1 11 -1.5
v -1 12 1.5
v -1 12 -1.5
v -1 17 1.5
v -1 17 0.5
v -1 17 -0.5
v -1 17 -1.5
v -1 19 3.5
v -1 19 1.5
v -1 19 -1.5
v -1 19 -3.5
v -1 20 2.5
v -1 20 1.5
v -1 20 -1.5
v -1 20 -2.5
v -1 21 1.5
v -1 21 0.5
v -1 21 -0.5
v -1 21 -1.5
v -1 23 3.5
v -1 23 2.5
v -1 23 -2.5
v -1 23 -3.5
v 0 10 1.5
v 0 10 -1.5
v 0 11 1.5
v 0 11 -1.5
v 6 4 2.5
v 6 4 1.5
v 6 4 -1.5
v 6 4 -2.5
v 6 6 1.5
v 6 6 -1.5
v 6 7 1.5
v 6 7 -1.5
v 6 8 2.5
v 6 8 1.5
v 6 8 -1.5
v 6 8 -2.5
v 7 0 2.5
v 7 0 1.5
v 7 0 -1.5
v 7 0 -2.5
v 7 1 2.5
v 7 1 1.5
v 7 1 -1.5
v 7 1 -2.5
v 7 3 2.5
v 7 3 1.5
v 7 3 -1.5
v 7 3 -2.5
v 7 4 2.5
v 7 4 1.5
v 7 4 -1.5
v 7 4 -2.5
v 7 7 1.5
v 7 7 -1.5
v 7 8 1.5
v 7 8 -1.5
v 7 10 1.5
v 7 10 0.5
v 7 10 -0.5
v 7 10 -1.5
v 8 10 0.5
v 8 10 -0.5
v 8 12 0.5
v 8 12 -0.5
v -2 19 3.5
v -2 23 3.5
v -1 19 3.5
v -1 23 3.5
v -4 0 2.5
v -4 1 2.5
v -4 3 2.5
v -4 4 2.5
v -4 14 2.5
v -4 16 2.5
v -3 0 2.5
v -3 1 2.5
v -3 3 2.5
v -3 4 2.5
v -3 8 2.5
v -3 14 2.5
v -3 16 2.5
v -2 3 2.5
v -2 4 2.5
v -1 4 2.5
v -1 8 2.5
v 4 4 2.5
v 4 8 2.5
v 5 3 2.5
v 5 4 2.5
v 6 0 2.5
v 6 1 2.5
v 6 3 2.5
v 6 4 2.5
v 6 8 2.5
v 7 0 2.5
v 7 1 2.5
v 7 3 2.5
v 7 4 2.5
v -6 12 1.5
v -6 15 1.5
v -5 7 1.5
v -5 12 1.5
v -5 13 1.5
v -5 14 1.5
v -4 6 1.5
v -4 7 1.5
v -4 8 1.5
v -4 11 1.5
v -4 13 1.5
v -4 14 1.5
v -4 15 1.5
v -4 16 1.5
v -4 18 1.5
v -3 6 1.5
v -3 8 1.5
v -3 11 1.5
v -3 12 1.5
v -3 14 1.5
v -3 15 1.5
v -3 16 1.5
v -3 17 1.5
v -2 12 1.5
v -2 15 1.5
v -2 18 1.5
v -2 19 1.5
v -2 20 1.5
v -2 21 1.5
v -1 6 1.5
v -1 8 1.5
v -1 11 1.5
v -1 12 1.5
v -1 17 1.5
v -1 19 1.5
v -1 20 1.5
v -1 21 1.5
v 0 10 1.5
v 0 11 1.5
v 4 6 1.5
v 4 8 1.5
v 6 7 1.5
v 6 8 1.5
v 7 7 1.5
v 7 8 1.5
v 7 10 1.5
v -7 12 0.5
v -7 14 0.5
v -6 12 0.5
v -6 14 0.5
v 6 10 0.5
v 6 11 0.5
v 7 10 0.5
v 7 11 0.5
v 7 12 0.5
v 8 10 0.5
v 8 12 0.5
v -4 15 -0.5
v -4 18 -0.5
v -3 15 -0.5
v -3 17 -0.5
v -2 18 -0.5
v -2 21 -0.5
v -1 17 -0.5
v -1 21 -0.5
v -4 0 -1.5
v -4 1 -1.5
v -4 3 -1.5
v -4 4 -1.5
v -3 0 -1.5
v -3 1 -1.5
v -3 3 -1.5
v -3 4 -1.5
v -3 6 -1.5
v -2 3 -1.5
v -2 4 -1.5
v -1 4 -1.5
v -1 6 -1.5
v 4 4 -1.5
v 4 6 -1.5
v 5 3 -1.5
v 5 4 -1.5
v 6 0 -1.5
v 6 1 -1.5
v 6 3 -1.5
v 6 4 -1.5
v 6 6 -1.5
v 7 0 -1.5
v 7 1 -1.5
v 7 3 -1.5
v 7 4 -1.5
v -2 20 -2.5
v -2 23 -2.5
v -1 20 -2.5
v -1 23 -2.5
v -2 20 2.5
v -2 23 2.5
v -1 20 2.5
v -1 23 2.5
v -4 0 1.5
v -4 1 1.5
v -4 3 1.5
v -4 4 1.5
v -3 0 1.5
v -3 1 1.5
v -3 3 1.5
v -3 4 1.5
v -3 6 1.5
v -2 3 1.5
v -2 4 1.5
v -1 4 1.5
v -1 6 1.5
v 4 4 1.5
v 4 6 1.5
v 5 3 1.5
v 5 4 1.5
v 6 0 1.5
v 6 1 1.5
v 6 3 1.5
v 6 4 1.5
v 6 6 1.5
v 7 0 1.5
v 7 1 1.5
v 7 3 1.5
v 7 4 1.5
v -4 15 0.5
v -4 18 0.5
v -3 15 0.5
v -3 17 0.5
v -2 18 0.5
v -2 21 0.5
v -1 17 0.5
v -1 21 0.5
v -7 12 -0.5
v -7 14 -0.5
v -6 12 -0.5
v -6 14 -0.5
v 6 10 -0.5
v 6 11 -0.5
v 7 10 -0.5
v 7 11 -0.5
v 7 12 -0.5
v 8 10 -0.5
v 8 12 -0.5
v -6 12 -1.5
v -6 15 -1.5
v -5 7 -1.5
v -5 12 -1.5
v -5 13 -1.5
v -5 14 -1.5
v -4 6 -1.5
v -4 7 -1.5
v -4 8 -1.5
v -4 11 -1.5
v -4 13 -1.5
v -4 14 -1.5
v -4 15 -1.5
v -4 16 -1.5
v -4 18 -1.5
v -3 6 -1.5
v -3 8 -1.5
v -3 11 -1.5
v -3 12 -1.5
v -3 14 -1.5
v -3 15 -1.5
v -3 16 -1.5
v -3 17 -1.5
v -2 12 -1.5
v -2 15 -1.5
v -2 18 -1.5
v -2 19 -1.5
v -2 20 -1.5
v -2 21 -1.5
v -1 6 -1.5
v -1 8 -1.5
v -1 11 -1.5
v -1 12 -1.5
v -1 17 -1.5
v -1 19 -1.5
v -1 20 -1.5
v -1 21 -1.5
v 0 10 -1.5
v 0 11 -1.5
v 4 6 -1.5
v 4 8 -1.5
v 6 7 -1.5
v 6 8 -1.5
v 7 7 -1.5
v 7 8 -1.5
v 7 10 -1.5
v -4 0 -2.5
v -4 1 -2.5
v -4 3 -2.5
v -4 4 -2.5
v -4 14 -2.5
v -4 16 -2.5
v -3 0 -2.5
v -3 1 -2.5
v -3 3 -2.5
v -3 4 -2.5
v -3 8 -2.5
v -3 14 -2.5
v -3 16 -2.5
v -2 3 -2.5
v -2 4 -2.5
v -1 4 -2.5
v -1 8 -2.5
v 4 4 -2.5
v 4 8 -2.5
v 5 3 -2.5
v 5 4 -2.5
v 6 0 -2.5
v 6 1 -2.5
v 6 3 -2.5
v 6 4 -2.5
v 6 8 -2.5
v 7 0 -2.5
v 7 1 -2.5
v 7 3 -2.5
v 7 4 -2.5
v -2 19 -3.5
v -2 23 -3.5
v -1 19 -3.5
v -1 23 -3.5
v -4 0 2.5
v -3 0 2.5
v 6 0 2.5
v 7 0 2.5
v -4 0 1.5
v -3 0 1.5
v 6 0 1.5
v 7 0 1.5
v -4 0 -1.5
v -3 0 -1.5
v 6 0 -1.5
v 7 0 -1.5
v -4 0 -2.5
v -3 0 -2.5
v 6 0 -2.5
v 7 0 -2.5
v -3 3 2.5
v -2 3 2.5
v 5 3 2.5
v 6 3 2.5
v -3 3 1.5
v -2 3 1.5
v 5 3 1.5
v 6 3 1.5
v -3 3 -1.5
v -2 3 -1.5
v 5 3 -1.5
v 6 3 -1.5
v -3 3 -2.5
v -2 3 -2.5
v 5 3 -2.5
v 6 3 -2.5
v -2 4 2.5
v -1 4 2.5
v 4 4 2.5
v 5 4 2.5
v -2 4 1.5
v -1 4 1.5
v 4 4 1.5
v 5 4 1.5
v -2 4 -1.5
v -1 4 -1.5
v 4 4 -1.5
v 5 4 -1.5
v -2 4 -2.5
v -1 4 -2.5
v 4 4 -2.5
v 5 4 -2.5
v -4 6 1.5
v -3 6 1.5
v -1 6 1.5
v 4 6 1.5
v 6 6 1.5
v -4 6 -1.5
v -3 6 -1.5
v -1 6 -1.5
v 4 6 -1.5
v 6 6 -1.5
v -5 7 1.5
v -4 7 1.5
v 6 7 1.5
v 7 7 1.5
v -5 7 -1.5
v -4 7 -1.5
v 6 7 -1.5
v 7 7 -1.5
v 7 10 0.5
v 8 10 0.5
v 7 10 -0.5
v 8 10 -0.5
v -6 12 1.5
v -5 12 1.5
v -7 12 0.5
v -6 12 0.5
v -7 12 -0.5
v -6 12 -0.5
v -6 12 -1.5
v -5 12 -1.5
v -4 14 2.5
v -3 14 2.5
v -4 14 1.5
v -3 14 1.5
v -4 14 -1.5
v -3 14 -1.5
v -4 14 -2.5
v -3 14 -2.5
v -3 17 1.5
v -1 17 1.5
v -3 17 0.5
v -1 17 0.5
v -3 17 -0.5
v -1 17 -0.5
v -3 17 -1.5
v -1 17 -1.5
v -2 19 3.5
v -1 19 3.5
v -2 19 1.5
v -1 19 1.5
v -2 19 -1.5
v -1 19 -1.5
v -2 19 -3.5
v -1 19 -3.5
v -4 4 2.5
v -3 4 2.5
v 6 4 2.5
v 7 4 2.5
v -4 4 1.5
v -3 4 1.5
v 6 4 1.5
v 7 4 1.5
v -4 4 -1.5
v -3 4 -1.5
v 6 4 -1.5
v 7 4 -1.5
v -4 4 -2.5
v -3 4 -2.5
v 6 4 -2.5
v 7 4 -2.5
v -3 8 2.5
v -1 8 2.5
v 4 8 2.5
v 6 8 2.5
v -3 8 1.5
v -1 8 1.5
v 4 8 1.5
v 6 8 1.5
v -3 8 -1.5
v -1 8 -1.5
v 4 8 -1.5
v 6 8 -1.5
v -3 8 -2.5
v -1 8 -2.5
v 4 8 -2.5
v 6 8 -2.5
v 0 10 1.5
v 7 10 1.5
v 6 10 0.5
v 7 10 0.5
v 6 10 -0.5
v 7 10 -0.5
v 0 10 -1.5
v 7 10 -1.5
v -1 11 1.5
v 0 11 1.5
v 6 11 0.5
v 7 11 0.5
v 6 11 -0.5
v 7 11 -0.5
v -1 11 -1.5
v 0 11 -1.5
v -2 12 1.5
v -1 12 1.5
v 7 12 0.5
v 8 12 0.5
v 7 12 -0.5
v 8 12 -0.5
v -2 12 -1.5
v -1 12 -1.5
v -7 14 0.5
v -6 14 0.5
v -7 14 -0.5
v -6 14 -0.5
v -6 15 1.5
v -4 15 1.5
v -3 15 1.5
v -2 15 1.5
v -4 15 0.5
v -3 15 0.5
v -4 15 -0.5
v -3 15 -0.5
v -6 15 -1.5
v -4 15 -1.5
v -3 15 -1.5
v -2 15 -1.5
v -4 16 2.5
v -3 16 2.5
v -4 16 1.5
v -3 16 1.5
v -4 16 -1.5
v -3 16 -1.5
v -4 16 -2.5
v -3 16 -2.5
v -4 18 1.5
v -2 18 1.5
v -4 18 0.5
v -2 18 0.5
v -4 18 -0.5
v -2 18 -0.5
v -4 18 -1.5
v -2 18 -1.5
v -2 20 2.5
v -1 20 2.5
v -2 20 1.5
v -1 20 1.5
v -2 20 -1.5
v -1 20 -1.5
v -2 20 -2.5
v -1 20 -2.5
v -2 21 1.5
v -1 21 1.5
v -2 21 0.5
v -1 21 0.5
v -2 21 -0.5
v -1 21 -0.5
v -2 21 -1.5
v -1 21 -1.5
v -2 23 3.5
v -1 23 3.5
v -2 23 2.5
v -1 23 2.5
v -2 23 -2.5
v -1 23 -2.5
v -2 23 -3.5
v -1 23 -3.5

# faces
f 3/6/1 2/6/1 1/6/1
f 4/6/1 2/6/1 3/6/1
f 9/1/1 6/1/1 5/1/1
f 10/1/1 8/1/1 7/1/1
f 11/1/1 9/1/1 5/1/1
f 11/1/1 10/1/1 9/1/1
f 12/1/1 8/1/1 10/1/1
f 12/1/1 10/1/1 11/1/1
f 15/2/1 14/2/1 13/2/1
f 16/2/1 14/2/1 15/2/1
f 21/6/1 18/6/1 17/6/1
f 22/6/1 18/6/1 21/6/1
f 23/6/1 20/6/1 19/6/1
f 24/6/1 20/6/1 23/6/1
f 25/2/1 22/2/1 21/2/1
f 26/2/1 22/2/1 25/2/1
f 27/2/1 24/2/1 23/2/1
f 28/2/1 24/2/1 27/2/1
f 29/1/1 26/1/1 25/1/1
f 30/1/1 26/1/1 29/1/1
f 31/1/1 28/1/1 27/1/1
f 32/1/1 28/1/1 31/1/1
f 35/2/1 34/2/1 33/2/1
f 36/2/1 34/2/1 35/2/1
f 41/2/1 38/2/1 37/2/1
f 44/2/1 40/2/1 39/2/1
f 45/2/1 41/2/1 37/2/1
f 46/4/1 42/4/1 41/4/1
f 46/2/1 41/2/1 45/2/1
f 47/4/1 44/4/1 43/4/1
f 47/2/1 40/2/1 44/2/1
f 48/2/1 40/2/1 47/2/1
f 49/4/1 42/4/1 46/4/1
f 50/4/1 42/4/1 49/4/1
f 51/4/1 47/4/1 43/4/1
f 52/4/1 47/4/1 51/4/1
f 57/1/1 54/1/1 53/1/1
f 58/1/1 56/1/1 55/1/1
f 59/1/1 57/1/1 53/1/1
f 60/1/1 57/1/1 59/1/1
f 61/1/1 56/1/1 58/1/1
f 62/1/1 56/1/1 61/1/1
f 68/4/1 64/4/1 63/4/1
f 69/4/1 66/4/1 65/4/1
f 71/4/1 68/4/1 67/4/1
f 72/4/1 64/4/1 68/4/1
f 72/4/1 68/4/1 71/4/1
f 73/4/1 70/4/1 69/4/1
f 73/4/1 69/4/1 65/4/1
f 74/4/1 70/4/1 73/4/1
f 75/4/1 64/4/1 72/4/1
f 76/4/1 64/4/1 75/4/1
f 77/4/1 73/4/1 65/4/1
f 78/4/1 73/4/1 77/4/1
f 79/4/1 71/4/1 67/4/1
f 80/4/1 71/4/1 79/4/1
f 81/4/1 70/4/1 74/4/1
f 82/4/1 70/4/1 81/4/1
f 87/1/1 84/1/1 83/1/1
f 88/1/1 86/1/1 85/1/1
f 89/1/1 87/1/1 83/1/1
f 90/1/1 87/1/1 89/1/1
f 91/1/1 86/1/1 88/1/1
f 92/1/1 86/1/1 91/1/1
f 97/1/1 94/1/1 93/1/1
f 98/1/1 94/1/1 97/1/1
f 99/1/1 96/1/1 95/1/1
f 100/1/1 96/1/1 99/1/1
f 105/6/1 102/6/1 101/6/1
f 106/6/1 102/6/1 105/6/1
f 107/6/1 104/6/1 103/6/1
f 108/6/1 104/6/1 107/6/1
f 109/2/1 106/2/1 105/2/1
f 110/2/1 106/2/1 109/2/1
f 111/2/1 108/2/1 107/2/1
f 112/2/1 108/2/1 111/2/1
f 115/2/1 114/2/1 113/2/1
f 116/2/1 114/2/1 115/2/1
f 119/2/1 118/2/1 117/2/1
f 120/2/1 118/2/1 119/2/1
f 121/6/2 122/6/2 125/6/2
f 125/6/2 122/6/2 126/6/2
f 123/6/2 124/6/2 127/6/2
f 127/6/2 124/6/2 128/6/2
f 125/2/2 126/2/2 129/2/2
f 129/2/2 126/2/2 130/2/2
f 127/2/2 128/2/2 131/2/2
f 131/2/2 128/2/2 132/2/2
f 133/2/2 134/2/2 137/2/2
f 135/2/2 136/2/2 140/2/2
f 133/2/2 137/2/2 141/2/2
f 137/4/2 138/4/2 142/4/2
f 141/2/2 137/2/2 142/2/2
f 139/4/2 140/4/2 143/4/2
f 140/2/2 136/2/2 143/2/2
f 143/2/2 136/2/2 144/2/2
f 142/4/2 138/4/2 145/4/2
f 145/4/2 138/4/2 146/4/2
f 139/4/2 143/4/2 147/4/2
f 147/4/2 143/4/2 148/4/2
f 149/1/2 150/1/2 153/1/2
f 153/1/2 150/1/2 154/1/2
f 151/1/2 152/1/2 155/1/2
f 155/1/2 152/1/2 156/1/2
f 157/1/2 158/1/2 159/1/2
f 159/1/2 158/1/2 160/1/2
f 161/1/2 162/1/2 165/1/2
f 163/1/2 164/1/2 166/1/2
f 161/1/2 165/1/2 167/1/2
f 167/1/2 165/1/2 168/1/2
f 166/1/2 164/1/2 169/1/2
f 169/1/2 164/1/2 170/1/2
f 171/1/2 172/1/2 173/1/2
f 173/1/2 172/1/2 174/1/2
f 175/4/2 176/4/2 180/4/2
f 177/4/2 178/4/2 181/4/2
f 179/4/2 180/4/2 183/4/2
f 180/4/2 176/4/2 184/4/2
f 183/4/2 180/4/2 184/4/2
f 177/4/2 181/4/2 185/4/2
f 181/4/2 182/4/2 185/4/2
f 185/4/2 182/4/2 186/4/2
f 184/4/2 176/4/2 187/4/2
f 187/4/2 176/4/2 188/4/2
f 177/4/2 185/4/2 189/4/2
f 189/4/2 185/4/2 190/4/2
f 179/4/2 183/4/2 191/4/2
f 191/4/2 183/4/2 192/4/2
f 186/4/2 182/4/2 193/4/2
f 193/4/2 182/4/2 194/4/2
f 195/1/2 196/1/2 197/1/2
f 197/1/2 196/1/2 198/1/2
f 199/1/2 200/1/2 203/1/2
f 201/1/2 202/1/2 204/1/2
f 199/1/2 203/1/2 205/1/2
f 203/2/2 204/2/2 205/2/2
f 204/1/2 202/1/2 206/1/2
f 205/2/2 204/2/2 206/2/2
f 199/1/2 205/1/2 207/1/2
f 207/1/2 205/1/2 208/1/2
f 206/1/2 202/1/2 209/1/2
f 209/1/2 202/1/2 210/1/2
f 211/6/2 212/6/2 215/6/2
f 215/6/2 212/6/2 216/6/2
f 213/6/2 214/6/2 217/6/2
f 217/6/2 214/6/2 218/6/2
f 215/2/2 216/2/2 219/2/2
f 219/2/2 216/2/2 220/2/2
f 217/2/2 218/2/2 221/2/2
f 221/2/2 218/2/2 222/2/2
f 219/1/2 220/1/2 223/1/2
f 223/1/2 220/1/2 224/1/2
f 221/1/2 222/1/2 225/1/2
f 225/1/2 222/1/2 226/1/2
f 227/2/2 228/2/2 229/2/2
f 229/2/2 228/2/2 230/2/2
f 229/1/2 230/1/2 231/1/2
f 231/1/2 230/1/2 232/1/2
f 232/1/2 230/1/2 233/1/2
f 233/1/2 230/1/2 234/1/2
f 235/2/2 236/2/2 237/2/2
f 237/2/2 236/2/2 238/2/2
f 241/4/3 240/4/3 239/4/3
f 242/4/3 240/4/3 241/4/3
f 249/6/3 244/6/3 243/6/3
f 250/2/3 245/2/3 244/2/3
f 250/6/3 244/6/3 249/6/3
f 251/1/3 246/1/3 245/1/3
f 251/2/3 245/2/3 250/2/3
f 252/1/3 246/1/3 251/1/3
f 254/2/3 248/2/3 247/2/3
f 255/2/3 248/2/3 254/2/3
f 256/1/3 253/1/3 252/1/3
f 256/1/3 252/1/3 251/1/3
f 257/1/3 253/1/3 256/1/3
f 258/1/3 253/1/3 257/1/3
f 259/1/3 253/1/3 258/1/3
f 263/1/3 261/1/3 260/1/3
f 266/1/3 263/1/3 262/1/3
f 267/1/3 261/1/3 263/1/3
f 267/1/3 263/1/3 266/1/3
f 268/1/3 261/1/3 267/1/3
f 269/6/3 265/6/3 264/6/3
f 270/2/3 266/2/3 265/2/3
f 270/6/3 265/6/3 269/6/3
f 271/1/3 267/1/3 266/1/3
f 271/2/3 266/2/3 270/2/3
f 272/1/3 267/1/3 271/1/3
f 276/1/3 274/1/3 273/1/3
f 277/1/3 274/1/3 276/1/3
f 278/1/3 274/1/3 277/1/3
f 280/2/3 276/2/3 275/2/3
f 281/2/3 276/2/3 280/2/3
f 282/2/3 276/2/3 281/2/3
f 283/1/3 277/1/3 276/1/3
f 283/6/3 278/6/3 277/6/3
f 284/1/3 274/1/3 278/1/3
f 284/6/3 278/6/3 283/6/3
f 285/1/3 274/1/3 284/1/3
f 288/2/3 280/2/3 279/2/3
f 288/2/3 281/2/3 280/2/3
f 289/1/3 282/1/3 281/1/3
f 289/2/3 281/2/3 288/2/3
f 290/2/3 276/2/3 282/2/3
f 290/1/3 282/1/3 289/1/3
f 291/1/3 283/1/3 276/1/3
f 291/2/3 276/2/3 290/2/3
f 291/1/3 284/1/3 283/1/3
f 292/1/3 284/1/3 291/1/3
f 294/4/3 287/4/3 286/4/3
f 295/4/3 287/4/3 294/4/3
f 296/1/3 290/1/3 289/1/3
f 296/1/3 293/1/3 292/1/3
f 296/1/3 292/1/3 291/1/3
f 296/1/3 291/1/3 290/1/3
f 297/1/3 293/1/3 296/1/3
f 298/4/3 287/4/3 295/4/3
f 303/1/3 296/1/3 289/1/3
f 304/1/3 296/1/3 303/1/3
f 305/1/3 296/1/3 304/1/3
f 306/4/3 299/4/3 298/4/3
f 306/4/3 298/4/3 295/4/3
f 307/4/3 299/4/3 306/4/3
f 308/4/3 301/4/3 300/4/3
f 309/4/3 301/4/3 308/4/3
f 310/1/3 304/1/3 303/1/3
f 311/1/3 304/1/3 310/1/3
f 312/2/3 303/2/3 302/2/3
f 313/1/3 310/1/3 303/1/3
f 313/2/3 303/2/3 312/2/3
f 315/1/3 310/1/3 313/1/3
f 316/2/3 315/2/3 314/2/3
f 317/1/3 310/1/3 315/1/3
f 317/2/3 315/2/3 316/2/3
f 318/1/3 310/1/3 317/1/3
f 321/6/3 320/6/3 319/6/3
f 322/6/3 320/6/3 321/6/3
f 325/2/3 324/2/3 323/2/3
f 326/2/3 324/2/3 325/2/3
f 328/2/3 326/2/3 325/2/3
f 328/2/3 327/2/3 326/2/3
f 329/2/3 327/2/3 328/2/3
f 332/4/3 331/4/3 330/4/3
f 333/4/3 331/4/3 332/4/3
f 334/4/3 331/4/3 333/4/3
f 336/4/3 334/4/3 333/4/3
f 336/4/3 335/4/3 334/4/3
f 337/4/3 335/4/3 336/4/3
f 342/6/3 339/6/3 338/6/3
f 343/2/3 340/2/3 339/2/3
f 343/6/3 339/6/3 342/6/3
f 344/1/3 341/1/3 340/1/3
f 344/2/3 340/2/3 343/2/3
f 345/1/3 341/1/3 344/1/3
f 347/1/3 346/1/3 345/1/3
f 347/1/3 345/1/3 344/1/3
f 348/1/3 346/1/3 347/1/3
f 349/1/3 346/1/3 348/1/3
f 350/1/3 346/1/3 349/1/3
f 354/1/3 352/1/3 351/1/3
f 357/1/3 354/1/3 353/1/3
f 358/1/3 352/1/3 354/1/3
f 358/1/3 354/1/3 357/1/3
f 359/1/3 352/1/3 358/1/3
f 360/6/3 356/6/3 355/6/3
f 361/2/3 357/2/3 356/2/3
f 361/6/3 356/6/3 360/6/3
f 362/1/3 358/1/3 357/1/3
f 362/2/3 357/2/3 361/2/3
f 363/1/3 358/1/3 362/1/3
f 366/4/3 365/4/3 364/4/3
f 367/4/3 365/4/3 366/4/3
f 368/4/4 369/4/4 370/4/4
f 370/4/4 369/4/4 371/4/4
f 372/6/4 373/6/4 376/6/4
f 373/2/4 374/2/4 377/2/4
f 376/6/4 373/6/4 377/6/4
f 374/1/4 375/1/4 378/1/4
f 377/2/4 374/2/4 378/2/4
f 378/1/4 375/1/4 379/1/4
f 379/1/4 380/1/4 381/1/4
f 378/1/4 379/1/4 381/1/4
f 381/1/4 380/1/4 382/1/4
f 382/1/4 380/1/4 383/1/4
f 383/1/4 380/1/4 384/1/4
f 385/1/4 386/1/4 388/1/4
f 387/1/4 388/1/4 391/1/4
f 388/1/4 386/1/4 392/1/4
f 391/1/4 388/1/4 392/1/4
f 392/1/4 386/1/4 393/1/4
f 389/6/4 390/6/4 394/6/4
f 390/2/4 391/2/4 395/2/4
f 394/6/4 390/6/4 395/6/4
f 391/1/4 392/1/4 396/1/4
f 395/2/4 391/2/4 396/2/4
f 396/1/4 392/1/4 397/1/4
f 398/4/4 399/4/4 400/4/4
f 400/4/4 399/4/4 401/4/4
f 401/4/4 399/4/4 402/4/4
f 401/4/4 402/4/4 404/4/4
f 402/4/4 403/4/4 404/4/4
f 404/4/4 403/4/4 405/4/4
f 406/6/4 407/6/4 408/6/4
f 408/6/4 407/6/4 409/6/4
f 410/2/4 411/2/4 412/2/4
f 412/2/4 411/2/4 413/2/4
f 412/2/4 413/2/4 415/2/4
f 413/2/4 414/2/4 415/2/4
f 415/2/4 414/2/4 416/2/4
f 417/1/4 418/1/4 420/1/4
f 420/1/4 418/1/4 421/1/4
f 421/1/4 418/1/4 422/1/4
f 419/2/4 420/2/4 424/2/4
f 424/2/4 420/2/4 425/2/4
f 425/2/4 420/2/4 426/2/4
f 420/1/4 421/1/4 427/1/4
f 421/6/4 422/6/4 427/6/4
f 422/1/4 418/1/4 428/1/4
f 427/6/4 422/6/4 428/6/4
f 428/1/4 418/1/4 429/1/4
f 423/2/4 424/2/4 432/2/4
f 424/2/4 425/2/4 432/2/4
f 425/1/4 426/1/4 433/1/4
f 432/2/4 425/2/4 433/2/4
f 426/2/4 420/2/4 434/2/4
f 433/1/4 426/1/4 434/1/4
f 420/1/4 427/1/4 435/1/4
f 434/2/4 420/2/4 435/2/4
f 427/1/4 428/1/4 435/1/4
f 435/1/4 428/1/4 436/1/4
f 430/4/4 431/4/4 438/4/4
f 438/4/4 431/4/4 439/4/4
f 433/1/4 434/1/4 440/1/4
f 436/1/4 437/1/4 440/1/4
f 435/1/4 436/1/4 440/1/4
f 434/1/4 435/1/4 440/1/4
f 440/1/4 437/1/4 441/1/4
f 439/4/4 431/4/4 442/4/4
f 433/1/4 440/1/4 447/1/4
f 447/1/4 440/1/4 448/1/4
f 448/1/4 440/1/4 449/1/4
f 442/4/4 443/4/4 450/4/4
f 439/4/4 442/4/4 450/4/4
f 450/4/4 443/4/4 451/4/4
f 444/4/4 445/4/4 452/4/4
f 452/4/4 445/4/4 453/4/4
f 447/1/4 448/1/4 454/1/4
f 454/1/4 448/1/4 455/1/4
f 446/2/4 447/2/4 456/2/4
f 447/1/4 454/1/4 457/1/4
f 456/2/4 447/2/4 457/2/4
f 457/1/4 454/1/4 459/1/4
f 458/2/4 459/2/4 460/2/4
f 459/1/4 454/1/4 461/1/4
f 460/2/4 459/2/4 461/2/4
f 461/1/4 454/1/4 462/1/4
f 463/6/4 464/6/4 469/6/4
f 464/2/4 465/2/4 470/2/4
f 469/6/4 464/6/4 470/6/4
f 465/1/4 466/1/4 471/1/4
f 470/2/4 465/2/4 471/2/4
f 471/1/4 466/1/4 472/1/4
f 467/2/4 468/2/4 474/2/4
f 474/2/4 468/2/4 475/2/4
f 472/1/4 473/1/4 476/1/4
f 471/1/4 472/1/4 476/1/4
f 476/1/4 473/1/4 477/1/4
f 477/1/4 473/1/4 478/1/4
f 478/1/4 473/1/4 479/1/4
f 480/1/4 481/1/4 483/1/4
f 482/1/4 483/1/4 486/1/4
f 483/1/4 481/1/4 487/1/4
f 486/1/4 483/1/4 487/1/4
f 487/1/4 481/1/4 488/1/4
f 484/6/4 485/6/4 489/6/4
f 485/2/4 486/2/4 490/2/4
f 489/6/4 485/6/4 490/6/4
f 486/1/4 487/1/4 491/1/4
f 490/2/4 486/2/4 491/2/4
f 491/1/4 487/1/4 492/1/4
f 493/4/4 494/4/4 495/4/4
f 495/4/4 494/4/4 496/4/4
f 501/6/5 498/6/5 497/6/5
f 502/6/5 498/6/5 501/6/5
f 503/6/5 500/6/5 499/6/5
f 504/6/5 500/6/5 503/6/5
f 509/6/5 506/6/5 505/6/5
f 510/6/5 506/6/5 509/6/5
f 511/6/5 508/6/5 507/6/5
f 512/6/5 508/6/5 511/6/5
f 517/1/5 514/1/5 513/1/5
f 518/1/5 514/1/5 517/1/5
f 519/1/5 516/1/5 515/1/5
f 520/1/5 516/1/5 519/1/5
f 525/1/5 522/1/5 521/1/5
f 526/1/5 522/1/5 525/1/5
f 527/1/5 524/1/5 523/1/5
f 528/1/5 524/1/5 527/1/5
f 533/1/5 530/1/5 529/1/5
f 534/1/5 530/1/5 533/1/5
f 535/1/5 532/1/5 531/1/5
f 536/1/5 532/1/5 535/1/5
f 541/1/5 538/1/5 537/1/5
f 542/1/5 538/1/5 541/1/5
f 543/1/5 540/1/5 539/1/5
f 544/1/5 540/1/5 543/1/5
f 550/2/5 546/2/5 545/2/5
f 550/2/5 549/2/5 548/2/5
f 550/2/5 548/2/5 547/2/5
f 550/2/5 547/2/5 546/2/5
f 551/2/5 549/2/5 550/2/5
f 552/2/5 549/2/5 551/2/5
f 553/2/5 549/2/5 552/2/5
f 554/2/5 549/2/5 553/2/5
f 559/2/5 556/2/5 555/2/5
f 560/2/5 556/2/5 559/2/5
f 561/2/5 558/2/5 557/2/5
f 562/2/5 558/2/5 561/2/5
f 565/2/5 564/2/5 563/2/5
f 566/2/5 564/2/5 565/2/5
f 570/1/5 568/1/5 567/1/5
f 571/6/5 570/6/5 569/6/5
f 572/1/5 568/1/5 570/1/5
f 572/6/5 570/6/5 571/6/5
f 573/1/5 568/1/5 572/1/5
f 574/1/5 568/1/5 573/1/5
f 577/2/5 576/2/5 575/2/5
f 578/2/5 576/2/5 577/2/5
f 581/2/5 580/2/5 579/2/5
f 582/2/5 580/2/5 581/2/5
f 585/4/5 584/4/5 583/4/5
f 586/4/5 584/4/5 585/4/5
f 589/4/5 588/4/5 587/4/5
f 590/4/5 588/4/5 589/4/5
f 593/4/5 592/4/5 591/4/5
f 594/4/5 592/4/5 593/4/5
f 597/4/5 596/4/5 595/4/5
f 598/4/5 596/4/5 597/4/5
f 599/1/6 600/1/6 603/1/6
f 603/1/6 600/1/6 604/1/6
f 601/1/6 602/1/6 605/1/6
f 605/1/6 602/1/6 606/1/6
f 607/1/6 608/1/6 611/1/6
f 611/1/6 608/1/6 612/1/6
f 609/1/6 610/1/6 613/1/6
f 613/1/6 610/1/6 614/1/6
f 615/1/6 616/1/6 619/1/6
f 619/1/6 616/1/6 620/1/6
f 617/1/6 618/1/6 621/1/6
f 621/1/6 618/1/6 622/1/6
f 623/1/6 624/1/6 627/1/6
f 627/1/6 624/1/6 628/1/6
f 625/1/6 626/1/6 629/1/6
f 629/1/6 626/1/6 630/1/6
f 631/1/6 632/1/6 633/1/6
f 633/1/6 632/1/6 634/1/6
f 631/1/6 633/1/6 635/1/6
f 631/1/6 635/1/6 637/1/6
f 635/1/6 636/1/6 637/1/6
f 637/1/6 636/1/6 638/1/6
f 641/2/6 642/2/6 643/2/6
f 643/2/6 642/2/6 644/2/6
f 639/1/6 640/1/6 645/1/6
f 645/1/6 640/1/6 646/1/6
f 649/2/6 650/2/6 651/2/6
f 651/2/6 650/2/6 652/2/6
f 647/1/6 648/1/6 653/1/6
f 653/1/6 648/1/6 654/1/6
f 655/6/6 656/6/6 657/6/6
f 657/6/6 656/6/6 658/6/6
f 659/1/6 660/1/6 663/1/6
f 661/1/6 662/1/6 664/1/6
f 659/1/6 663/1/6 665/1/6
f 663/1/6 664/1/6 665/1/6
f 664/1/6 662/1/6 666/1/6
f 665/1/6 664/1/6 666/1/6
f 659/1/6 665/1/6 667/1/6
f 667/1/6 665/1/6 668/1/6
f 666/1/6 662/1/6 669/1/6
f 669/1/6 662/1/6 670/1/6
f 671/2/6 672/2/6 673/2/6
f 673/2/6 672/2/6 674/2/6
f 675/2/6 676/2/6 677/2/6
f 677/2/6 676/2/6 678/2/6
f 679/4/6 680/4/6 681/4/6
f 681/4/6 680/4/6 682/4/6
f 683/4/6 684/4/6 685/4/6
f 685/4/6 684/4/6 686/4/6
f 687/4/6 688/4/6 689/4/6
f 689/4/6 688/4/6 690/4/6
f 691/4/6 692/4/6 693/4/6
f 693/4/6 692/4/6 694/4/6
f 695/4/6 696/4/6 697/4/6
f 697/4/6 696/4/6 698/4/6
f 699/4/6 700/4/6 701/4/6
f 701/4/6 700/4/6 702/4/6
f 703/4/6 704/4/6 705/4/6
f 705/4/6 704/4/6 706/4/6
f 707/4/6 708/4/6 709/4/6
f 709/4/6 708/4/6 710/4/6
